PathFileType	4	(X/Y/Z)	C:\Users\dbl\Desktop\20210112(1)\20210112\bx_y_0_901.trc
DataRate	CameraRate	NumFrames	NumMarkers	Units	OrigDataRate	OrigDataStartFrame	OrigNumFrames
50.00	50.00	       8	43	mm	50.00	343	       457
Frame#	Time	Top.Head			R.Acromium			L.Acromium			Sternum			R.ASIS			L.ASIS			V.Sacral			R.Thigh.Upper			R.Thigh.Front			R.Thigh.Rear			R.Knee.Lat			R.Knee.Med			R.Shank.Upper			R.Shank.Front			R.Shank.Rear			R.Ankle.Lat			R.Midfoot.Lat			R.Toe.Lat			R.Toe.Tip			R.Toe.Med			R.Ankle.Med			R.Midfoot.Sup			R.Heel			L.Thigh.Upper			L.Thigh.Front			L.Thigh.Rear			L.Knee.Lat			L.Knee.Med			L.Shank.Upper			L.Shank.Front			L.Shank.Rear			L.Ankle.Lat			L.Midfoot.Lat			L.Toe.Lat			L.Toe.Tip			L.Toe.Med			L.Ankle.Med			L.Midfoot.Sup			L.Heel			origin1 front left			origin2 front right			origin 3 back right			origin 4 back leftt			
		X1	Y1	Z1	X2	Y2	Z2	X3	Y3	Z3	X4	Y4	Z4	X5	Y5	Z5	X6	Y6	Z6	X7	Y7	Z7	X8	Y8	Z8	X9	Y9	Z9	X10	Y10	Z10	X11	Y11	Z11	X12	Y12	Z12	X13	Y13	Z13	X14	Y14	Z14	X15	Y15	Z15	X16	Y16	Z16	X17	Y17	Z17	X18	Y18	Z18	X19	Y19	Z19	X20	Y20	Z20	X21	Y21	Z21	X22	Y22	Z22	X23	Y23	Z23	X24	Y24	Z24	X25	Y25	Z25	X26	Y26	Z26	X27	Y27	Z27	X28	Y28	Z28	X29	Y29	Z29	X30	Y30	Z30	X31	Y31	Z31	X32	Y32	Z32	X33	Y33	Z33	X34	Y34	Z34	X35	Y35	Z35	X36	Y36	Z36	X37	Y37	Z37	X38	Y38	Z38	X39	Y39	Z39	X40	Y40	Z40	X41	Y41	Z41	X42	Y42	Z42	X43	Y43	Z43	

343	6.840	-764.67737	110.70064	1843.44568	-694.64801	-67.45486	1546.70996	-710.22363	294.31625	1531.78101	-618.42090	130.05038	1452.61621	-578.34656	-10.81284	1051.39880	-568.20087	216.85771	1070.08313	-775.76465	92.96422	1051.37878	-635.46088	-76.53226	861.73267	-572.27234	-3.74429	804.08142	-676.92212	-51.55537	718.31763	-688.49579	-31.12997	614.30383	-677.89026	77.88237	577.23407	-702.77350	-27.61739	567.18005	-656.06873	16.90708	518.87030	-752.40948	-36.28056	489.78342	-766.21027	-6.67662	208.45016	-664.10223	-68.34836	162.15863	-622.60199	-78.93925	157.75916	-559.51227	-37.71374	162.61212	-604.04633	19.78060	166.83026	-714.79181	76.85387	216.41508	-675.63654	54.69125	158.01485	-794.79236	54.38202	174.82477	-621.74072	276.65988	876.46063	-565.30005	210.66251	813.27991	-672.69733	268.07925	746.15149	-707.37170	246.53847	640.67999	-677.42828	141.22630	572.65942	-716.69586	242.50803	577.03210	-664.32574	202.70903	531.52167	-759.60095	251.09775	505.46677	-770.17065	221.69911	206.30304	-666.85461	298.59903	160.53186	-629.56909	306.49100	162.95901	-560.01819	259.44424	165.67970	-594.07294	221.87576	172.76900	-710.27649	150.87096	215.27023	-675.46356	173.78049	155.70609	-795.36511	171.56984	184.56911	-528.25110	304.33911	146.39842	-517.34058	-72.33101	142.83723	-875.97443	-78.74625	141.26086	-882.69629	296.14011	144.53624	
344	6.860	-765.20465	110.19479	1843.52661	-695.22852	-67.68692	1546.74695	-710.71228	294.05164	1531.98645	-618.91083	130.08617	1452.88440	-578.83521	-10.93305	1051.38953	-568.69891	216.65379	1070.24377	-776.27411	92.92354	1051.48938	-635.83008	-76.92314	862.21729	-572.68884	-4.05946	804.20197	-677.33209	-51.63701	718.31281	-688.74756	-31.32488	614.22198	-677.81183	77.68932	577.13892	-702.84155	-27.76000	567.10626	-656.04376	16.77625	518.86334	-752.47784	-36.55872	489.78470	-766.35010	-6.90222	208.38080	-664.20996	-68.44083	162.03914	-622.65662	-79.02301	157.74008	-559.58643	-37.66849	162.71957	-604.12280	19.62561	167.01866	-714.89148	76.60999	216.55562	-675.57709	54.64480	158.21912	-794.92157	54.15204	174.75255	-622.25269	276.67538	876.69928	-565.91742	210.77591	813.44287	-673.46057	268.04669	746.31549	-707.87952	246.47887	640.63910	-677.92236	141.22504	572.69000	-717.11035	242.54501	577.15112	-664.69659	202.76741	531.63141	-759.97540	251.11827	505.38303	-770.20398	221.69864	206.29454	-666.85919	298.61981	160.53766	-629.57477	306.47101	162.92213	-560.03644	259.44797	165.70074	-594.09174	221.88571	172.79301	-710.27863	150.99814	215.37639	-675.44897	173.77951	155.72864	-795.35492	171.58401	184.58842	-528.25989	304.33987	146.39493	-517.35577	-72.40511	142.85274	-875.96545	-78.74319	141.21829	-882.65869	296.12421	144.53268	
345	6.880	-765.58716	109.68210	1843.60413	-695.65588	-67.92827	1546.75879	-711.20172	293.79495	1532.19348	-619.36719	130.09941	1453.12122	-579.24567	-10.95875	1051.38379	-569.25623	216.51953	1070.32349	-776.74536	92.82525	1051.55994	-636.14160	-77.26704	862.60840	-573.04535	-4.26334	804.24518	-677.65381	-51.70747	718.26532	-688.98859	-31.51937	614.10626	-677.94141	77.53082	577.13904	-702.93298	-27.94972	567.12207	-656.12805	16.61784	518.89056	-752.71362	-36.90903	489.78107	-766.58661	-7.13932	208.25829	-664.29321	-68.49714	161.93533	-622.69537	-79.07286	157.73048	-559.73981	-37.63427	162.91602	-604.18463	19.53869	167.13434	-715.05353	76.33336	216.69020	-675.54700	54.59704	158.37602	-795.07336	53.92471	174.71140	-622.86084	276.64966	876.91681	-566.56641	210.89963	813.57281	-674.21246	268.02060	746.43817	-708.47314	246.46260	640.63513	-678.45740	141.18233	572.71497	-717.59003	242.66069	577.25671	-665.14111	202.82498	531.71564	-760.46588	251.17171	505.31213	-770.22949	221.71196	206.28633	-666.85742	298.64975	160.57159	-629.60242	306.53009	162.94565	-560.07080	259.47031	165.74960	-594.10089	221.89320	172.79755	-710.31555	151.12276	215.53136	-675.45935	173.81291	155.71181	-795.36957	171.60327	184.61885	-528.25116	304.33099	146.38896	-517.29425	-72.47581	142.92549	-875.96484	-78.73467	141.21646	-882.61316	296.09464	144.52753	
346	6.900	-765.84564	109.22933	1843.66492	-695.98230	-68.17671	1546.73413	-711.65521	293.55124	1532.35425	-619.79065	130.09071	1453.32727	-579.57758	-10.93167	1051.40613	-569.83301	216.48380	1070.31372	-777.18127	92.64828	1051.62561	-636.40289	-77.56837	862.92047	-573.38843	-4.33692	804.22626	-677.86847	-51.75430	718.17395	-689.16193	-31.68320	614.00195	-678.23425	77.37640	577.22882	-703.00702	-28.20059	567.22229	-656.29608	16.45641	518.92712	-753.02106	-37.30301	489.79272	-766.83350	-7.35061	208.11136	-664.35669	-68.54436	161.88303	-622.71564	-79.11208	157.72816	-559.93018	-37.62510	163.13858	-604.22760	19.51203	167.19708	-715.19135	76.09164	216.83279	-675.54999	54.56334	158.46214	-795.20935	53.75272	174.67210	-623.57458	276.55389	876.99170	-567.16302	211.03024	813.64154	-674.89557	267.93723	746.45367	-709.16541	246.46799	640.67914	-678.93591	141.09135	572.71075	-718.12738	242.72520	577.30048	-665.61255	202.89899	531.79492	-761.01740	251.17389	505.24789	-770.25128	221.73241	206.27063	-666.84851	298.67639	160.61130	-629.63336	306.64578	163.02667	-560.10370	259.50983	165.82184	-594.11127	221.89458	172.80621	-710.41095	151.19411	215.68997	-675.49298	173.85458	155.67436	-795.42114	171.62466	184.64075	-528.22833	304.33383	146.39037	-517.18549	-72.54507	143.06953	-875.94080	-78.73958	141.25333	-882.58551	296.05499	144.51241	
347	6.920	-765.95477	108.87923	1843.71936	-696.25732	-68.40668	1546.69165	-712.04657	293.35480	1532.46851	-620.18195	130.06067	1453.50330	-579.85248	-10.91803	1051.45239	-570.36420	216.54677	1070.24670	-777.60815	92.41431	1051.70386	-636.62280	-77.82986	863.16284	-573.72791	-4.31703	804.17719	-678.01184	-51.77281	718.05841	-689.30066	-31.80070	613.94873	-678.60760	77.20970	577.34607	-703.08588	-28.44507	567.33740	-656.53424	16.32439	518.93018	-753.29816	-37.66179	489.83105	-767.04041	-7.51909	207.99379	-664.40240	-68.59315	161.87785	-622.71747	-79.15012	157.73322	-560.09076	-37.62180	163.31976	-604.24579	19.52940	167.22690	-715.22839	75.95163	217.02477	-675.57910	54.55286	158.49352	-795.31213	53.65353	174.62903	-624.35223	276.39340	876.89227	-567.65625	211.17708	813.64948	-675.51105	267.72888	746.36157	-709.87463	246.49599	640.77606	-679.31616	140.97142	572.67126	-718.65228	242.65962	577.27289	-666.06464	202.98634	531.82764	-761.53406	251.08946	505.17816	-770.27026	221.75403	206.24734	-666.83185	298.69293	160.64114	-629.66138	306.74835	163.09390	-560.12988	259.55237	165.89969	-594.11597	221.89514	172.83107	-710.52246	151.22081	215.80751	-675.52673	173.87859	155.64626	-795.47461	171.65576	184.63588	-528.20001	304.34583	146.39821	-517.07642	-72.60643	143.24846	-875.88879	-78.75826	141.29012	-882.58411	296.01724	144.48959	
348	6.940	-765.86676	108.61233	1843.78613	-696.47601	-68.58452	1546.65332	-712.38220	293.25079	1532.55908	-620.54181	130.00986	1453.65027	-580.08557	-10.94051	1051.49719	-570.83539	216.66899	1070.16150	-778.02118	92.17571	1051.75598	-636.80792	-78.05299	863.34100	-574.04407	-4.27241	804.13605	-678.14801	-51.78911	717.95844	-689.46460	-31.90036	613.96399	-678.98877	77.03040	577.41656	-703.22992	-28.60960	567.39728	-656.81049	16.21454	518.90796	-753.51520	-37.89879	489.86752	-767.20496	-7.63055	207.93526	-664.42651	-68.63825	161.89395	-622.71838	-79.17655	157.74054	-560.18085	-37.58906	163.43707	-604.24683	19.56789	167.22974	-715.15759	75.92115	217.24728	-675.62085	54.55078	158.51732	-795.39886	53.59978	174.61537	-625.09473	276.25040	876.73517	-568.08032	211.34132	813.63910	-676.09045	267.43909	746.27411	-710.46930	246.54799	640.89368	-679.59155	140.85704	572.60870	-719.07190	242.50320	577.21826	-666.44263	203.04501	531.80182	-761.92596	250.96161	505.10550	-770.28003	221.77086	206.22670	-666.82715	298.69791	160.65190	-629.69592	306.80011	163.10139	-560.15582	259.58215	165.95383	-594.10449	221.89871	172.86304	-710.57745	151.24037	215.86090	-675.54053	173.88029	155.64529	-795.50037	171.69266	184.60867	-528.17383	304.35165	146.40630	-517.02783	-72.63194	143.35672	-875.85944	-78.76760	141.29779	-882.59570	295.99811	144.47644	
349	6.960	-765.55774	108.38437	1843.87683	-696.60669	-68.70155	1546.63245	-712.69604	293.24176	1532.62964	-620.87109	129.93887	1453.76892	-580.27844	-10.98541	1051.51990	-571.27399	216.77403	1070.08350	-778.38995	91.96540	1051.73584	-636.96234	-78.23866	863.45874	-574.32916	-4.24735	804.11462	-678.33740	-51.84658	717.90448	-689.69794	-32.04163	614.04803	-679.36462	76.84805	577.40698	-703.49384	-28.70478	567.40778	-657.08624	16.08079	518.92059	-753.72064	-37.98280	489.86136	-767.33014	-7.67585	207.91740	-664.43054	-68.67229	161.91394	-622.73846	-79.18403	157.73730	-560.19440	-37.51558	163.49861	-604.25006	19.60566	167.20946	-715.05511	75.94022	217.42307	-675.66772	54.53323	158.57782	-795.49512	53.55676	174.65271	-625.69666	276.20538	876.66711	-568.48065	211.48975	813.65771	-676.61200	267.22345	746.31390	-710.86536	246.60146	640.97864	-679.78101	140.76485	572.54071	-719.35059	242.33490	577.17792	-666.70233	203.03978	531.76691	-762.15674	250.85023	505.04211	-770.27863	221.76787	206.21758	-666.85632	298.69125	160.63805	-629.73285	306.79965	163.06371	-560.18335	259.59576	165.96988	-594.08368	221.90034	172.88434	-710.56702	151.25880	215.86472	-675.52649	173.86011	155.68147	-795.50574	171.71806	184.58160	-528.15674	304.34277	146.41763	-517.08917	-72.60407	143.29761	-875.88013	-78.75655	141.29846	-882.59973	295.99915	144.48109	
350	6.980	-765.05121	108.18568	1843.99548	-696.65747	-68.78661	1546.65198	-713.02954	293.27884	1532.66394	-621.17041	129.84828	1453.85986	-580.44391	-11.04446	1051.51306	-571.70679	216.80884	1070.01318	-778.70221	91.78054	1051.64648	-637.08911	-78.38776	863.51953	-574.61328	-4.24705	804.10101	-678.60632	-51.97025	717.90070	-690.02985	-32.25952	614.19910	-679.76044	76.68852	577.33966	-703.89209	-28.77706	567.41412	-657.36127	15.90376	518.99817	-753.96582	-37.96227	489.81381	-767.41882	-7.66740	207.91290	-664.42590	-68.69178	161.93303	-622.77057	-79.18089	157.72258	-560.15613	-37.42744	163.51567	-604.26532	19.63659	167.17612	-714.99945	75.95525	217.50906	-675.72461	54.49315	158.68388	-795.58917	53.51703	174.71436	-626.09906	276.25073	876.72626	-568.83826	211.56676	813.70813	-677.00220	267.18915	746.48224	-711.07788	246.62086	640.99884	-679.92474	140.68413	572.47198	-719.52020	242.21074	577.16284	-666.84296	202.97803	531.76752	-762.26001	250.78642	505.00970	-770.27301	221.73206	206.21770	-666.91187	298.67679	160.60632	-629.75507	306.76947	163.02878	-560.20966	259.60724	165.96663	-594.07062	221.89801	172.88699	-710.54340	151.26044	215.85939	-675.49854	173.82718	155.74268	-795.50342	171.72168	184.57268	-528.15594	304.31686	146.43274	-517.25165	-72.55364	143.08426	-875.90662	-78.74373	141.32436	-882.59454	296.00888	144.49176	
